<svg width="28" height="28" viewBox="0 0 28 28" fill="none" xmlns="http://www.w3.org/2000/svg">
<g clip-path="url(#clip0_341_459)">
<path d="M17.4928 14L27.2692 4.22358C27.7332 3.76041 27.9942 3.1319 27.9947 2.4763C27.9953 1.8207 27.7354 1.19173 27.2723 0.727739C26.8091 0.263753 26.1806 0.00276245 25.525 0.00218347C24.8694 0.00160449 24.2404 0.261484 23.7764 0.724652L14 10.5011L4.22358 0.724652C3.75959 0.260665 3.13029 0 2.47412 0C1.81794 0 1.18864 0.260665 0.724652 0.724652C0.260665 1.18864 0 1.81794 0 2.47412C0 3.13029 0.260665 3.75959 0.724652 4.22358L10.5011 14L0.724652 23.7764C0.260665 24.2404 0 24.8697 0 25.5259C0 26.1821 0.260665 26.8114 0.724652 27.2753C1.18864 27.7393 1.81794 28 2.47412 28C3.13029 28 3.75959 27.7393 4.22358 27.2753L14 17.4989L23.7764 27.2753C24.2404 27.7393 24.8697 28 25.5259 28C26.1821 28 26.8114 27.7393 27.2753 27.2753C27.7393 26.8114 28 26.1821 28 25.5259C28 24.8697 27.7393 24.2404 27.2753 23.7764L17.4928 14Z" fill="#B98B3C"/>
</g>
<defs>
<clipPath id="clip0_341_459">
<rect width="28" height="28" fill="white"/>
</clipPath>
</defs>
</svg>
