<svg width="28" height="23" viewBox="0 0 28 23" fill="none" xmlns="http://www.w3.org/2000/svg">
<path fill-rule="evenodd" clip-rule="evenodd" d="M0 1.76923C0 0.792112 0.792111 0 1.76923 0H26.2308C27.2079 0 28 0.792112 28 1.76923C28 2.74635 27.2079 3.53846 26.2308 3.53846H1.76923C0.792111 3.53846 0 2.74635 0 1.76923ZM4.51613 11.5C4.51613 10.5229 5.30824 9.73077 6.28536 9.73077H26.2308C27.2079 9.73077 28 10.5229 28 11.5C28 12.4771 27.2079 13.2692 26.2308 13.2692H6.28536C5.30824 13.2692 4.51613 12.4771 4.51613 11.5ZM1.76923 19.4615C0.792111 19.4615 0 20.2537 0 21.2308C0 22.2079 0.792111 23 1.76923 23H26.2308C27.2079 23 28 22.2079 28 21.2308C28 20.2537 27.2079 19.4615 26.2308 19.4615H1.76923Z" fill="#B98B3C"/>
</svg>
