<svg width="22" height="23" viewBox="0 0 22 23" fill="none" xmlns="http://www.w3.org/2000/svg">
<path fill-rule="evenodd" clip-rule="evenodd" d="M9.46503 1.59305L9.46503 17.5614L2.62023 10.4583C2.02098 9.83602 1.04887 9.83602 0.449707 10.4583C-0.149902 11.0806 -0.149902 12.0894 0.449707 12.7108L9.91456 22.5333C10.5138 23.1556 11.486 23.1556 12.0851 22.5333L21.5504 12.7108C21.8503 12.3997 22 11.9921 22 11.5845C22 11.177 21.8503 10.7693 21.5504 10.4583C20.9511 9.83602 19.979 9.83602 19.3799 10.4583L12.5348 17.5614L12.5348 1.59305C12.5348 0.713356 11.8475 0 10.9999 0C10.1522 0 9.46503 0.713264 9.46503 1.59305Z" fill="white"/>
</svg>
