<svg width="32" height="32" viewBox="0 0 32 32" fill="none" xmlns="http://www.w3.org/2000/svg">
<path fill-rule="evenodd" clip-rule="evenodd" d="M20.713 8.49067H11.2012C9.68295 8.49067 8.44775 9.72587 8.44775 11.2441V20.7559C8.44775 22.2741 9.68295 23.5097 11.2012 23.5097H20.713C22.2312 23.5097 23.4668 22.2745 23.4668 20.7559V11.2441C23.4668 9.72587 22.2316 8.49067 20.713 8.49067ZM15.9571 20.9444C13.231 20.9444 11.0131 18.7264 11.0131 16C11.0131 13.274 13.231 11.056 15.9571 11.056C18.6835 11.056 20.9014 13.274 20.9014 16C20.9014 18.726 18.6831 20.9444 15.9571 20.9444ZM19.8902 10.9084C19.8902 11.5534 20.415 12.0782 21.0604 12.0782C21.7054 12.0782 22.2302 11.5534 22.2302 10.9084C22.2302 10.2635 21.7054 9.73867 21.0604 9.73867C20.415 9.73867 19.8902 10.2635 19.8902 10.9084Z" fill="#78246D"/>
<path fill-rule="evenodd" clip-rule="evenodd" d="M15.9572 13.1452C14.3835 13.1452 13.1021 14.426 13.1021 15.9996C13.1021 17.574 14.3835 18.8551 15.9572 18.8551C17.5316 18.8551 18.8119 17.574 18.8119 15.9996C18.8119 14.4263 17.5312 13.1452 15.9572 13.1452Z" fill="#78246D"/>
<path fill-rule="evenodd" clip-rule="evenodd" d="M0 15.957C0 7.14453 7.14453 0 15.957 0C24.7694 0 31.914 7.14453 31.914 15.957C31.914 24.7694 24.7694 31.914 15.957 31.914C7.14453 31.914 0 24.7694 0 15.957ZM20.7129 25.5986C23.3835 25.5986 25.5556 23.4265 25.5556 20.7559V11.2441C25.5556 8.57387 23.3835 6.40142 20.7129 6.40142H11.2011C8.53084 6.40142 6.3584 8.57387 6.3584 11.2441V20.7559C6.3584 23.4265 8.53084 25.5986 11.2011 25.5986H20.7129Z" fill="#78246D"/>
</svg>
