<svg width="32" height="32" viewBox="0 0 32 32" fill="none" xmlns="http://www.w3.org/2000/svg">
<path fill-rule="evenodd" clip-rule="evenodd" d="M8.38379 17.137H9.6491V23.9853H10.8462V17.137H12.135V16.0153H8.38379V17.137Z" fill="#78246D"/>
<path fill-rule="evenodd" clip-rule="evenodd" d="M17.3938 18.6181C17.7409 18.1904 18.1102 17.9742 18.506 17.9742C18.9337 17.9742 19.2224 18.1995 19.3657 18.6449C19.4379 18.8836 19.4748 19.2761 19.4748 19.8384V22.2031C19.4748 22.7527 19.4379 23.1481 19.3657 23.3998C19.222 23.842 18.934 24.0673 18.506 24.0673C18.1229 24.0673 17.754 23.8544 17.3938 23.41V23.9853H16.3179V16.015H17.3938V18.6181ZM17.93 23.0887C18.2408 23.0887 18.3982 22.8242 18.3982 22.2873V19.7528C18.3982 19.2173 18.2405 18.9424 17.93 18.9424C17.7533 18.9424 17.5734 19.0266 17.3935 19.2046V22.8238C17.5734 23.0041 17.7533 23.0887 17.93 23.0887Z" fill="#78246D"/>
<path fill-rule="evenodd" clip-rule="evenodd" d="M14.3098 22.5851C14.0711 22.9224 13.8455 23.0887 13.6293 23.0887C13.4856 23.0887 13.4037 23.0041 13.3775 22.8369C13.3677 22.8023 13.3677 22.671 13.3677 22.4189V18.0467H12.2915V22.7419C12.2915 23.1615 12.3277 23.4449 12.3865 23.6251C12.4946 23.9262 12.7336 24.0673 13.0797 24.0673C13.4758 24.0673 13.882 23.8282 14.3098 23.3378V23.9856H15.3867V18.0467H14.3098V22.5851Z" fill="#78246D"/>
<path fill-rule="evenodd" clip-rule="evenodd" d="M15.2335 12.5603C15.5839 12.5603 15.7521 12.2824 15.7521 11.7273V9.20294C15.7521 8.64751 15.5839 8.37094 15.2335 8.37094C14.8828 8.37094 14.7144 8.64784 14.7144 9.20294V11.7273C14.7144 12.2828 14.8828 12.5603 15.2335 12.5603Z" fill="#78246D"/>
<path fill-rule="evenodd" clip-rule="evenodd" d="M15.9592 0C7.14514 0 0 7.14514 0 15.9592C0 24.7732 7.14514 31.9184 15.9592 31.9184C24.7732 31.9184 31.9184 24.7732 31.9184 15.9592C31.9184 7.14514 24.7732 0 15.9592 0ZM17.7342 7.46449H18.8186V11.8831C18.8186 12.1381 18.8186 12.2704 18.8317 12.306C18.8555 12.4744 18.9411 12.5607 19.0867 12.5607C19.3042 12.5607 19.5324 12.3922 19.7737 12.0516V7.46449H20.8611V13.4658H19.7737V12.8114C19.3407 13.3078 18.928 13.5484 18.5313 13.5484C18.1812 13.5484 17.9396 13.4064 17.8305 13.1027C17.7704 12.9208 17.7342 12.6338 17.7342 12.2103V7.46449ZM13.9673 8.00751C13.7362 8.31086 13.6271 8.77976 13.6271 9.42139V11.5229C13.6271 12.1607 13.7362 12.6341 13.9673 12.9342C14.2681 13.3437 14.6916 13.5484 15.2336 13.5484C15.7783 13.5484 16.2015 13.3437 16.5022 12.9342C16.7301 12.6341 16.8392 12.161 16.8392 11.5229V9.42139C16.8392 8.77976 16.7301 8.31053 16.5022 8.00751C16.2015 7.59706 15.7783 7.392 15.2336 7.392C14.6916 7.392 14.2681 7.59706 13.9673 8.00751ZM10.719 5.41257L11.5752 8.57502L12.3977 5.41257H13.6173L12.1665 10.2044V13.4661H10.961V10.2044C10.8516 9.62645 10.6103 8.77975 10.2233 7.65649C10.0949 7.27864 9.96374 6.90021 9.83259 6.52187L9.83244 6.52142L9.83232 6.5211C9.70414 6.15129 9.57598 5.78157 9.45045 5.41257H10.719ZM22.626 26.2593C23.5582 26.1551 24.3324 25.4563 24.5505 24.5097C24.8611 23.1615 24.8624 21.6891 24.8624 20.3007V20.2747C24.8624 18.8939 24.8624 17.4319 24.5548 16.0918C24.3363 15.1448 23.5618 14.4464 22.6296 14.3422C20.4216 14.0957 18.1868 14.0944 15.9621 14.0957C13.7368 14.0944 11.502 14.0957 9.29404 14.3422C8.3618 14.446 7.58792 15.1448 7.37012 16.0918C7.05992 17.4403 7.056 18.9123 7.056 20.3007C7.056 21.6891 7.056 23.1615 7.36653 24.5097C7.584 25.4567 8.35853 26.1551 9.29078 26.2593C11.4984 26.5058 13.7336 26.5071 15.9582 26.5058C18.1838 26.5071 20.4176 26.5058 22.626 26.2593Z" fill="#78246D"/>
<path fill-rule="evenodd" clip-rule="evenodd" d="M20.6444 18.5829C20.9553 18.1763 21.3827 17.9742 21.9332 17.9742C22.4733 17.9742 22.9014 18.1767 23.2021 18.5822C23.4278 18.8826 23.5352 19.3469 23.5352 19.9814V21.2114H21.3827V22.2648C21.3827 22.814 21.5636 23.0883 21.9332 23.0883C22.1981 23.0883 22.3528 22.9447 22.4142 22.657C22.4237 22.5985 22.4377 22.3592 22.4377 21.9282H23.5352V22.0846C23.5352 22.4317 23.5225 22.6704 23.5123 22.7781C23.4764 23.0165 23.3915 23.2323 23.2609 23.423C22.9631 23.8544 22.522 24.0669 21.96 24.0669C21.3971 24.0669 20.9683 23.8642 20.6578 23.4586C20.4286 23.1611 20.312 22.6936 20.312 22.0624V19.982C20.312 19.3476 20.4162 18.8833 20.6444 18.5829ZM21.3834 20.3161H22.4596V19.7665C22.4596 19.2176 22.2794 18.9427 21.9234 18.9427C21.5639 18.9427 21.3834 19.2173 21.3834 19.7665V20.3161Z" fill="#78246D"/>
</svg>
